<svg xmlns="http://www.w3.org/2000/svg" viewBox="0 0 64 64" fill="none">
  <circle cx="32" cy="32" r="30" fill="#111827"/>
  <path d="M32 8C25 8 18 14 16 22C16 22 14 28 16 34C18 40 22 44 28 46L30 48V52H34V48L36 46C42 44 46 40 48 34C50 28 48 22 48 22C46 14 39 8 32 8Z" fill="#10B981"/>
  <path d="M32 14C27 14 22 19 20 26C20 26 19 30 20 34C21 38 25 42 29 44L30 46H34L35 44C39 42 43 38 44 34C45 30 44 26 44 26C42 19 37 14 32 14Z" fill="#34D399"/>
  <circle cx="32" cy="28" r="5" fill="#111827"/>
  <circle cx="30" cy="26" r="2" fill="#FCD34D"/>
  <path d="M28 42L30 38H34L36 42" stroke="#111827" stroke-width="1.5" fill="none"/>
  <path d="M26 34L30 40M38 40L42 34" stroke="#111827" stroke-width="1.5" fill="none"/>
</svg>
